<svg xmlns="http://www.w3.org/2000/svg" viewBox="0 0 114.64 43.82"><title>ABB_Logo</title><g id="Layer_2" data-name="Layer 2"><g id="Layer_1-2" data-name="Layer 1"><path d="M111.82,21.25a14.24,14.24,0,0,0-5.17-4.32,9.26,9.26,0,0,0,4-7.63c0-5.3-3.6-9.3-10.22-9.3H97.82V21.25Z" style="fill:#ed1c29"/><rect x="83.66" width="12.84" height="21.25" style="fill:#ed1c29"/><rect x="83.66" y="22.57" width="12.84" height="21.25" style="fill:#ed1c29"/><path d="M97.82,22.57V43.82h2.61c8.7,0,14.21-6.16,14.21-14.16a14,14,0,0,0-1.94-7.09Z" style="fill:#ed1c29"/><polygon points="35.84 21.25 28.33 0 22.57 0 22.57 21.25 35.84 21.25" style="fill:#ed1c29"/><polygon points="21.25 21.25 21.25 0 15.49 0 7.98 21.25 21.25 21.25" style="fill:#ed1c29"/><polygon points="21.25 22.57 7.51 22.57 0 43.82 11.06 43.82 14.16 34.97 21.25 34.97 21.25 22.57" style="fill:#ed1c29"/><polygon points="22.57 22.57 22.57 34.97 29.66 34.97 32.75 43.82 43.82 43.82 36.31 22.57 22.57 22.57" style="fill:#ed1c29"/><path d="M75.52,21.25a14.15,14.15,0,0,0-5.17-4.32,9.26,9.26,0,0,0,4-7.63C74.36,4,70.75,0,64.14,0H61.52V21.25Z" style="fill:#ed1c29"/><rect x="47.36" width="12.84" height="21.25" style="fill:#ed1c29"/><rect x="47.36" y="22.57" width="12.84" height="21.25" style="fill:#ed1c29"/><path d="M61.52,22.57V43.82h2.62c8.7,0,14.2-6.16,14.2-14.16a14.1,14.1,0,0,0-1.93-7.09Z" style="fill:#ed1c29"/></g></g></svg>